<svg width="22" height="18" viewBox="0 0 22 18" fill="none" xmlns="http://www.w3.org/2000/svg">
<path d="M21 13.3209V1.70405C21 1.31522 20.6555 1 20.2308 1H1.76923C1.3444 1 1 1.31522 1 1.70405V12.9689C1 13.3577 1.3444 13.6729 1.76923 13.6729H9.3142M6.37225 13.673L4.84607 17.1932M1.7698 17.1932H6.38518M18.7528 13.0217C19.6117 13.5165 20.3004 14.8877 20.7708 16.0429C21.0163 16.6456 20.5669 17.2968 19.9283 17.2976L14.511 17.3046L9.09436 17.2976C8.45572 17.2968 8.00632 16.6456 8.25167 16.0428C8.72189 14.8877 9.41012 13.5165 10.269 13.0217C11.4859 12.3205 12.977 11.9404 14.5109 11.9404C16.0448 11.9404 17.5359 12.3205 18.7528 13.0217ZM18.3821 7.45561C18.3821 9.51968 16.6489 11.1929 14.5109 11.1929C12.3729 11.1929 10.6398 9.51968 10.6398 7.45561C10.6398 5.39153 12.3729 3.71826 14.5109 3.71826C16.6489 3.71826 18.3821 5.39153 18.3821 7.45561Z" stroke="white" stroke-linecap="round"/>
</svg>
