<svg width="17" height="20" viewBox="0 0 17 20" fill="none" xmlns="http://www.w3.org/2000/svg">
<path d="M9.39845 9.13462H12.864M9.39845 13.9375H12.864M4.03774 13.8591L5.19923 15.0192L7.13504 12.3122M4.03774 8.96965L5.19923 10.1298L7.13504 7.42277M16.2483 17.6154C16.2483 17.9826 16.1022 18.3348 15.8423 18.5944C15.5823 18.8541 15.2297 19 14.8621 19H2.38621C2.01856 19 1.66597 18.8541 1.40601 18.5944C1.14605 18.3348 1 17.9826 1 17.6154V2.38462C1 2.01739 1.14605 1.66521 1.40601 1.40554C1.66597 1.14588 2.01856 1 2.38621 1H10.1293C10.4969 1 10.8495 1.14588 11.1094 1.40554L15.8423 6.13292C16.1022 6.39258 16.2483 6.74477 16.2483 7.11198V17.6154Z" stroke="white" stroke-width="1.5" stroke-linecap="round" stroke-linejoin="round"/>
</svg>
