<svg width="390" height="800" viewBox="0 0 390 800" fill="none" xmlns="http://www.w3.org/2000/svg">
<rect x="24.2227" y="3.39324" width="388.123" height="348.315" rx="25" transform="matrix(0.887752 -0.460323 0.727093 0.686539 0.251749 204.686)" stroke="#379B60" stroke-width="30"/>
<rect x="24.2227" y="3.39324" width="388.123" height="348.315" rx="25" transform="matrix(0.887752 -0.460323 0.727093 0.686539 0.251749 204.686)" stroke="white" stroke-opacity="0.7" stroke-width="30"/>
<rect x="24.2227" y="3.39324" width="388.123" height="348.315" rx="25" transform="matrix(0.887752 -0.460323 0.727093 0.686539 22.7889 347.923)" stroke="#353D46" stroke-width="30"/>
<rect x="24.2227" y="3.39324" width="388.123" height="348.315" rx="25" transform="matrix(0.887752 -0.460323 0.727093 0.686539 22.7889 347.923)" stroke="white" stroke-opacity="0.7" stroke-width="30"/>
<rect x="24.2227" y="3.39324" width="388.123" height="348.315" rx="25" transform="matrix(0.887752 -0.460323 0.727093 0.686539 70.992 552.486)" stroke="#379B60" stroke-width="30"/>
<rect x="24.2227" y="3.39324" width="388.123" height="348.315" rx="25" transform="matrix(0.887752 -0.460323 0.727093 0.686539 70.992 552.486)" stroke="white" stroke-opacity="0.7" stroke-width="30"/>
</svg>
