<svg width="27" height="34" viewBox="0 0 27 34" fill="none" xmlns="http://www.w3.org/2000/svg">
<path d="M13.5 17L24.1364 24.3449C24.6772 24.7183 25 25.3335 25 25.9906V31.5C25 31.7761 24.7761 32 24.5 32H2.5C2.22386 32 2 31.7761 2 31.5V25.9906C2 25.3335 2.32281 24.7183 2.86355 24.3449L13.5 17ZM13.5 17L24.1364 9.65514C24.6772 9.28174 25 8.66653 25 8.00939V2.5C25 2.22386 24.7761 2 24.5 2H2.5C2.22386 2 2 2.22386 2 2.5V8.00939C2 8.66653 2.32281 9.28174 2.86355 9.65514L13.5 17Z" stroke="#3AA867" stroke-width="3" stroke-linecap="round" stroke-linejoin="round"/>
<path d="M20 27.2794V30.85C20 30.9328 19.9328 31 19.85 31H7.15C7.06716 31 7 30.9328 7 30.85V27.2794C7 27.1058 7.09008 26.9446 7.23795 26.8536L13.0807 23.258C13.3378 23.0998 13.6622 23.0998 13.9193 23.258L19.762 26.8536C19.9099 26.9446 20 27.1058 20 27.2794Z" fill="#3AA867"/>
</svg>
