<svg width="44" height="44" viewBox="0 0 44 44" fill="none" xmlns="http://www.w3.org/2000/svg">
<g clip-path="url(#clip0_4183_6814)">
<path d="M28.2857 29.857C36.0967 29.857 42.4286 23.525 42.4286 15.7141C42.4286 7.90327 36.0967 1.57129 28.2857 1.57129C20.4748 1.57129 14.1429 7.90327 14.1429 15.7141C14.1429 23.525 20.4748 29.857 28.2857 29.857Z" stroke="#3AA867" stroke-width="3" stroke-linecap="round" stroke-linejoin="round"/>
<path d="M32.214 11.5345C31.8277 10.9531 31.3169 10.4649 30.7187 10.105C30.1206 9.7451 29.45 9.52252 28.7553 9.45338C28.0607 9.3842 27.3594 9.47016 26.702 9.70506C26.0446 9.93996 25.4476 10.3179 24.9541 10.8116" stroke="#3AA867" stroke-width="3" stroke-linecap="round" stroke-linejoin="round"/>
<path d="M1.57144 42.4289L19.1086 26.4946" stroke="#3AA867" stroke-width="3" stroke-linecap="round" stroke-linejoin="round"/>
</g>
<defs>
<clipPath id="clip0_4183_6814">
<rect width="44" height="44" fill="white"/>
</clipPath>
</defs>
</svg>
