<svg width="22" height="19" viewBox="0 0 22 19" fill="none" xmlns="http://www.w3.org/2000/svg">
<path d="M15.2927 17.7977C16.4098 17.7962 17.22 16.6677 16.7795 15.601C16.4883 14.8959 16.1235 14.1092 15.6908 13.4167C15.2647 12.7348 14.74 12.0899 14.1087 11.7311C12.7815 10.9769 11.2109 10.5209 9.57687 10.4004C12.0213 10.0027 13.9105 7.97136 13.9105 5.4855C13.9105 2.70927 11.5542 0.5 8.69969 0.5C5.84522 0.5 3.48889 2.70927 3.48889 5.4855C3.48889 7.97135 5.37809 10.0026 7.8225 10.4004C6.18842 10.5209 4.61783 10.9769 3.29067 11.7311C2.65926 12.0899 2.13473 12.7348 1.70884 13.4167C1.2763 14.1093 0.911645 14.8959 0.620656 15.601C0.180374 16.6677 0.990539 17.7962 2.10766 17.7977L8.6992 17.8062L8.70049 17.8062L15.2927 17.7977Z" stroke="white" stroke-linecap="round"/>
<path d="M21.7808 9.23823C21.7617 9.14363 21.7229 9.0541 21.6669 8.97546C21.6109 8.89684 21.5389 8.83086 21.4557 8.78183L19.6758 10.625C19.5929 10.7141 19.4928 10.7856 19.3816 10.8352C19.2704 10.8848 19.1503 10.9114 19.0285 10.9135C18.9068 10.9157 18.7859 10.8932 18.673 10.8476C18.5601 10.8019 18.4576 10.7339 18.3716 10.6477L17.6724 10.0438C17.5035 9.87742 17.4066 9.65141 17.4025 9.41432C17.3983 9.17724 17.4873 8.94798 17.6503 8.77577L19.4302 6.93263C19.3891 6.84052 19.3282 6.75856 19.2519 6.69257C19.1756 6.62658 19.0858 6.57816 18.9886 6.55075C18.3544 6.43573 17.7006 6.50112 17.1016 6.73945C16.5027 6.97779 15.9827 7.3795 15.6009 7.89885C15.2191 8.4182 14.9908 9.03433 14.9419 9.67709C14.8962 10.2792 15.0096 10.882 15.2699 11.4253L10.4938 16.371C10.1412 16.7361 10.1574 17.3196 10.5296 17.6647L11.046 18.1435C11.4063 18.4774 11.967 18.4634 12.3101 18.1119L17.142 13.1626C17.6776 13.3729 18.2583 13.4463 18.8313 13.3748C19.4648 13.2957 20.064 13.0424 20.5621 12.6431C21.0603 12.2438 21.438 11.7142 21.6531 11.113C21.8683 10.512 21.9125 9.86296 21.7808 9.23823Z" fill="white"/>
</svg>
