<svg width="103" height="97" viewBox="0 0 103 97" fill="none" xmlns="http://www.w3.org/2000/svg">
<path d="M49.9997 33.6097C50.6496 33.2021 51.4753 33.2021 52.1252 33.6097L99.4237 63.2773C100.673 64.0611 100.673 65.882 99.4237 66.6658L52.1252 96.3334C51.4753 96.741 50.6496 96.741 49.9997 96.3334L2.70118 66.6658C1.45148 65.882 1.45148 64.0611 2.70118 63.2773L49.9997 33.6097Z" fill="#5FBE7F"/>
<path d="M49.9915 33.2572C50.6456 32.8421 51.4805 32.8421 52.1346 33.2572L93.9736 59.8056C95.2115 60.5911 95.2115 62.3975 93.9736 63.183L52.1346 89.7314C51.4805 90.1465 50.6456 90.1465 49.9915 89.7314L8.15254 63.183C6.91461 62.3975 6.91462 60.5911 8.15254 59.8056L49.9915 33.2572Z" fill="#379B60"/>
<path d="M49.991 17.5177C50.645 17.1028 51.4798 17.1028 52.1338 17.5177L99.4628 47.5436C100.701 48.3291 100.701 50.1358 99.4628 50.9213L52.1338 80.9472C51.4798 81.3621 50.645 81.3621 49.991 80.9472L2.66204 50.9213C1.4239 50.1358 1.4239 48.3291 2.66203 47.5436L49.991 17.5177Z" fill="#3B4B59"/>
<path d="M49.9907 17.516C50.6441 17.102 51.4777 17.102 52.1312 17.516L94.3317 44.2486C95.5713 45.0339 95.5713 46.8424 94.3317 47.6277L52.1312 74.3602C51.4777 74.7742 50.6441 74.7742 49.9907 74.3602L7.79018 47.6277C6.55053 46.8424 6.55053 45.0339 7.79018 44.2486L49.9907 17.516Z" fill="#353D46"/>
<path d="M49.991 0.679707C50.645 0.264796 51.4798 0.264794 52.1338 0.679706L99.4628 30.7056C100.701 31.4911 100.701 33.2978 99.4628 34.0833L52.1338 64.1092C51.4798 64.5241 50.645 64.5241 49.991 64.1092L2.66204 34.0833C1.4239 33.2978 1.4239 31.4911 2.66203 30.7056L49.991 0.679707Z" fill="#3AA867"/>
</svg>
