<svg width="44" height="44" viewBox="0 0 44 44" fill="none" xmlns="http://www.w3.org/2000/svg">
<g clip-path="url(#clip0_2374_8636)">
<path d="M28.2854 29.8572C36.0964 29.8572 42.4283 23.5253 42.4283 15.7144C42.4283 7.90351 36.0964 1.57153 28.2854 1.57153C20.4746 1.57153 14.1426 7.90351 14.1426 15.7144C14.1426 23.5253 20.4746 29.8572 28.2854 29.8572Z" stroke="white" stroke-width="2" stroke-linecap="round" stroke-linejoin="round"/>
<path d="M32.213 11.5345C31.8267 10.9531 31.3159 10.4649 30.7178 10.105C30.1196 9.7451 29.449 9.52252 28.7543 9.45338C28.0597 9.3842 27.3584 9.47016 26.701 9.70506C26.0436 9.93996 25.4466 10.3179 24.9531 10.8116" stroke="white" stroke-width="2" stroke-linecap="round" stroke-linejoin="round"/>
<path d="M1.57227 42.4287L19.1094 26.4944" stroke="white" stroke-width="2" stroke-linecap="round" stroke-linejoin="round"/>
</g>
<defs>
<clipPath id="clip0_2374_8636">
<rect width="44" height="44" fill="white"/>
</clipPath>
</defs>
</svg>
