<svg width="22" height="21" viewBox="0 0 22 21" fill="none" xmlns="http://www.w3.org/2000/svg">
<path d="M9.45952 15.7318L7.92106 19.8239M12.5388 15.7318L14.0772 19.8239M6.38059 19.8233H15.6114M8.85843 4.56294L8.50972 4.64341C8.5413 4.78085 8.54525 4.92319 8.52133 5.06217C8.49742 5.20114 8.44611 5.33398 8.3704 5.45295C8.29469 5.57192 8.19609 5.67466 8.08032 5.75518C7.96456 5.83571 7.83394 5.89242 7.69606 5.92202C7.41648 5.98083 7.12498 5.92761 6.88422 5.77379C6.64345 5.61997 6.47265 5.37783 6.40851 5.09942L5.71109 5.24248C5.61545 5.26335 5.52503 5.30339 5.44529 5.36018C5.36556 5.41698 5.29817 5.48935 5.24719 5.57292C5.19621 5.6565 5.16271 5.74953 5.14869 5.84642C5.13468 5.9433 5.14046 6.04202 5.16567 6.13661C5.16567 6.13661 5.48756 7.62981 5.86309 9.31077M20.2308 1H1.76923C1.3444 1 1 1.36642 1 1.81841V14.9129C1 15.3649 1.3444 15.7314 1.76923 15.7314H20.2308C20.6555 15.7314 21 15.3649 21 14.9129V1.81841C21 1.36642 20.6555 1 20.2308 1ZM15.5645 4.55399C15.5111 4.70454 15.4276 4.84269 15.3192 4.96004C15.2108 5.0774 15.0797 5.17153 14.9339 5.23673C14.7881 5.30193 14.6304 5.33685 14.4708 5.33936C14.311 5.34187 14.1524 5.31193 14.0046 5.25134C13.8568 5.19076 13.7228 5.1008 13.6108 4.98691C13.4987 4.87302 13.411 4.73757 13.3529 4.58877C13.2947 4.43997 13.2674 4.28091 13.2725 4.12125C13.2777 3.96157 13.3152 3.80461 13.3828 3.65986L12.6585 3.32009C12.4651 3.2395 12.2478 3.23842 12.0536 3.3171C11.8594 3.39577 11.7041 3.54785 11.6213 3.74033L8.61707 10.8129L8.22365 11.7071C8.14306 11.9005 8.14198 12.1178 8.22066 12.3119C8.29934 12.5061 8.45141 12.6615 8.64389 12.7443L12.2741 14.2911C12.4675 14.3717 12.6848 14.3727 12.879 14.2941C13.0732 14.2154 13.2285 14.0633 13.3113 13.8709L16.7089 5.8773C16.7839 5.69142 16.7859 5.48412 16.7146 5.29682C16.6433 5.1095 16.504 4.95599 16.3245 4.86694L15.5645 4.55399Z" stroke="white" stroke-linecap="round" stroke-linejoin="round"/>
</svg>
