<svg width="62" height="65" viewBox="0 0 62 65" fill="none" xmlns="http://www.w3.org/2000/svg">
<path d="M29.3707 31.5L59.1478 3.16249M29.3707 31.5L20.9795 45M29.3707 31.5L39.2207 50.6606C39.735 51.1875 40.3781 51.5712 41.0862 51.7737C41.7944 51.9761 42.5431 51.99 43.2583 51.8141C43.978 51.6467 44.6425 51.2972 45.188 50.7988C45.7335 50.3003 46.1416 49.6703 46.373 48.9686L60.1392 7.7081C60.4268 6.93501 60.486 6.09569 60.3101 5.28989C60.1342 4.48405 59.7309 3.74568 59.1478 3.16249M59.1478 3.16249C58.5647 2.5793 57.8261 2.17583 57.0205 2.00003C56.2145 1.82424 55.3751 1.88351 54.6022 2.17082L13.3416 15.9371C12.6158 16.185 11.9693 16.6223 11.4691 17.2037C10.9688 17.785 10.6329 18.4895 10.496 19.2441C10.3547 19.9305 10.3862 20.6412 10.5875 21.3124C10.7889 21.9836 11.1539 22.5942 11.6496 23.0895L24.9795 28.5M59.1478 3.16249L24.9795 28.5M24.9795 28.5L20.9795 45M20.9795 45L31.1699 35M17.0084 49L1.72266 64M17.5024 34.5L2.21675 49.5M32.7903 48.5L17.5046 63.5" stroke="#33404D" stroke-width="2" stroke-linecap="round" stroke-linejoin="round"/>
</svg>
