<svg width="67" height="63" viewBox="0 0 67 63" fill="none" xmlns="http://www.w3.org/2000/svg">
<path d="M35.3912 30.5L65.1683 2.16249M35.3912 30.5L27 44M35.3912 30.5L45.2412 49.6606C45.7555 50.1875 46.3986 50.5712 47.1068 50.7737C47.8149 50.9761 48.5636 50.99 49.2788 50.8141C49.9985 50.6467 50.663 50.2972 51.2085 49.7988C51.754 49.3003 52.1621 48.6703 52.3936 47.9686L66.1598 6.7081C66.4473 5.93501 66.5066 5.09569 66.3307 4.28989C66.1548 3.48405 65.7514 2.74568 65.1683 2.16249M65.1683 2.16249C64.5852 1.5793 63.8466 1.17583 63.041 1.00003C62.2351 0.824238 61.3956 0.883515 60.6228 1.17082L19.3621 14.9371C18.6363 15.185 17.9899 15.6223 17.4896 16.2037C16.9894 16.785 16.6534 17.4895 16.5165 18.2441C16.3753 18.9305 16.4067 19.6412 16.6081 20.3124C16.8094 20.9836 17.1744 21.5942 17.6702 22.0895L31 27.5M65.1683 2.16249L31 27.5M31 27.5L27 44M27 44L37.1905 34M20 45L1 61M20 30L1 46M37 46L18 62" stroke="#33404D" stroke-linecap="round" stroke-linejoin="round"/>
</svg>
