<svg width="45" height="45" viewBox="0 0 45 45" fill="none" xmlns="http://www.w3.org/2000/svg">
<path d="M6.68127 42.5378V34.7432H14.476" stroke="#3AA867" stroke-width="3" stroke-linecap="round" stroke-linejoin="round"/>
<path d="M42.1935 18.5474C44.133 28.8612 37.8215 39.0864 27.5166 41.8474C19.6297 43.9606 11.5824 41.1179 6.68127 35.2282" stroke="#3AA867" stroke-width="3" stroke-linecap="round" stroke-linejoin="round"/>
<path d="M2.34916 25.9956C0.409691 15.6818 6.72133 5.45674 17.0261 2.69559C24.9125 0.582443 32.9592 3.42463 37.8605 9.31353" stroke="#3AA867" stroke-width="3" stroke-linecap="round" stroke-linejoin="round"/>
<path d="M37.8608 2.00488V9.79965H30.0659" stroke="#3AA867" stroke-width="3" stroke-linecap="round" stroke-linejoin="round"/>
<path d="M22.2713 20.6999C24.441 20.6999 26.1999 18.941 26.1999 16.7713C26.1999 14.6017 24.441 12.8428 22.2713 12.8428C20.1016 12.8428 18.3427 14.6017 18.3427 16.7713C18.3427 18.941 20.1016 20.6999 22.2713 20.6999Z" stroke="#3AA867" stroke-width="3"/>
<path d="M15.0679 30.1283C16.2803 27.3534 19.0493 25.4141 22.2712 25.4141C25.4932 25.4141 28.2621 27.3534 29.4746 30.1283" stroke="#3AA867" stroke-width="3" stroke-linecap="round"/>
</svg>
