<svg width="19" height="18" viewBox="0 0 19 18" fill="none" xmlns="http://www.w3.org/2000/svg">
<path d="M1 9.21446L0.414611 8.74561L0.0391009 9.21446L0.414611 9.68331L1 9.21446ZM8.71416 9.96446C9.12838 9.96446 9.46416 9.62867 9.46416 9.21446C9.46416 8.80024 9.12838 8.46446 8.71416 8.46446V9.96446ZM10.7219 1.88836L10.5987 1.14854V1.14854L10.7219 1.88836ZM12.1543 1.64989L12.2775 2.38971L12.1543 1.64989ZM12.1543 16.779L12.2775 16.0392L12.1543 16.779ZM10.7219 16.5406L10.5987 17.2804H10.5987L10.7219 16.5406ZM8.26328 15.7199L8.83527 15.2348L8.83527 15.2348L8.26328 15.7199ZM17.2333 16.7038L17.7177 17.2763L17.2333 16.7038ZM17.2333 1.72517L17.7177 1.15263V1.15263L17.2333 1.72517ZM8.26328 2.70903L7.69129 2.22393V2.22393L8.26328 2.70903ZM3.84313 4.46488L0.414611 8.74561L1.58539 9.68331L5.01391 5.40258L3.84313 4.46488ZM0.414611 9.68331L3.84313 13.964L5.01391 13.0263L1.58539 8.74561L0.414611 9.68331ZM1 9.96446H8.71416V8.46446H1V9.96446ZM10.8451 2.62818L12.2775 2.38971L12.0312 0.910074L10.5987 1.14854L10.8451 2.62818ZM17.3926 6.71688V11.712H18.8926V6.71688H17.3926ZM12.2775 16.0392L10.8451 15.8007L10.5987 17.2804L12.0312 17.5188L12.2775 16.0392ZM8.60703 5.90283V5.26635H7.10703V5.90283H8.60703ZM8.60703 13.1626V12.6955H7.10703V13.1626H8.60703ZM10.8451 15.8007C10.142 15.6837 9.68326 15.606 9.34561 15.5055C9.02797 15.4111 8.90857 15.3212 8.83527 15.2348L7.69129 16.205C8.02423 16.5976 8.45002 16.8041 8.91806 16.9433C9.3661 17.0766 9.93359 17.1696 10.5987 17.2804L10.8451 15.8007ZM7.10703 13.1626C7.10703 13.8361 7.10567 14.4107 7.1636 14.8742C7.22415 15.3586 7.35826 15.8123 7.69129 16.205L8.83527 15.2348C8.76205 15.1484 8.69304 15.0163 8.65202 14.6882C8.6084 14.3392 8.60703 13.8746 8.60703 13.1626H7.10703ZM17.3926 11.712C17.3926 13.1424 17.3908 14.1346 17.2864 14.8694C17.1849 15.5833 17.0034 15.9158 16.7488 16.1312L17.7177 17.2763C18.3724 16.7223 18.6456 15.9663 18.7715 15.0805C18.8944 14.2154 18.8926 13.0965 18.8926 11.712H17.3926ZM12.0312 17.5188C13.3985 17.7465 14.5029 17.9321 15.3771 17.9532C16.2722 17.9748 17.0632 17.8301 17.7177 17.2763L16.7488 16.1312C16.494 16.3468 16.1354 16.4711 15.4133 16.4537C14.6703 16.4357 13.69 16.2743 12.2775 16.0392L12.0312 17.5188ZM12.2775 2.38971C13.69 2.15457 14.6703 1.99317 15.4133 1.97524C16.1354 1.95782 16.494 2.08211 16.7488 2.29771L17.7177 1.15263C17.0632 0.598804 16.2722 0.454081 15.3771 0.475681C14.5029 0.496778 13.3985 0.682452 12.0312 0.910074L12.2775 2.38971ZM18.8926 6.71688C18.8926 5.33239 18.8944 4.21348 18.7715 3.34846C18.6456 2.46258 18.3724 1.70659 17.7177 1.15263L16.7488 2.29771C17.0034 2.51316 17.1849 2.84559 17.2864 3.55949C17.3908 4.29427 17.3926 5.2865 17.3926 6.71688H18.8926ZM10.5987 1.14854C9.93359 1.25927 9.3661 1.35236 8.91806 1.4856C8.45002 1.62478 8.02423 1.83135 7.69129 2.22393L8.83527 3.19414C8.90857 3.10771 9.02797 3.01783 9.34561 2.92337C9.68326 2.82297 10.142 2.74523 10.8451 2.62818L10.5987 1.14854ZM8.60703 5.26635C8.60703 4.5543 8.6084 4.08976 8.65202 3.74076C8.69304 3.41261 8.76205 3.28047 8.83527 3.19414L7.69129 2.22393C7.35826 2.6166 7.22415 3.07035 7.1636 3.55472C7.10567 4.01824 7.10703 4.59286 7.10703 5.26635H8.60703Z" fill="white"/>
</svg>
