<svg width="44" height="44" viewBox="0 0 44 44" fill="none" xmlns="http://www.w3.org/2000/svg">
<g clip-path="url(#clip0_2374_8625)">
<path d="M6.41016 42.2665V34.4719H14.2049" stroke="white" stroke-width="2" stroke-linecap="round" stroke-linejoin="round"/>
<path d="M41.9224 18.2759C43.8619 28.5898 37.5504 38.8149 27.2455 41.5759C19.3586 43.6891 11.3113 40.8464 6.41016 34.9567" stroke="white" stroke-width="2" stroke-linecap="round" stroke-linejoin="round"/>
<path d="M2.07767 25.7244C0.138207 15.4105 6.44985 5.1855 16.7546 2.42435C24.641 0.311203 32.6877 3.15339 37.589 9.04229" stroke="white" stroke-width="2" stroke-linecap="round" stroke-linejoin="round"/>
<path d="M37.5898 1.73364V9.52841H29.7949" stroke="white" stroke-width="2" stroke-linecap="round" stroke-linejoin="round"/>
<path d="M21.9989 20.4287C24.1686 20.4287 25.9275 18.6698 25.9275 16.5001C25.9275 14.3304 24.1686 12.5715 21.9989 12.5715C19.8292 12.5715 18.0703 14.3304 18.0703 16.5001C18.0703 18.6698 19.8292 20.4287 21.9989 20.4287Z" stroke="white" stroke-width="2"/>
<path d="M14.7969 29.8571C16.0093 27.0821 18.7783 25.1428 22.0002 25.1428C25.2222 25.1428 27.9912 27.0821 29.2036 29.8571" stroke="white" stroke-width="2" stroke-linecap="round"/>
</g>
<defs>
<clipPath id="clip0_2374_8625">
<rect width="44" height="44" fill="white"/>
</clipPath>
</defs>
</svg>
